<?xml version="1.0" encoding="utf-8"?>
<!-- Generator: Adobe Illustrator 25.0.1, SVG Export Plug-In . SVG Version: 6.00 Build 0)  -->
<svg version="1.1" id="Ebene_1" xmlns="http://www.w3.org/2000/svg" xmlns:xlink="http://www.w3.org/1999/xlink" x="0px" y="0px"
	 viewBox="0 0 1920 1080" style="enable-background:new 0 0 1920 1080;" xml:space="preserve">
<style type="text/css">
	.st0{fill:#F6F7F7;}
	.st1{fill:#F9D0B6;}
	.st2{fill:#4F3936;}
	.st3{fill:#3E9CB3;}
	.st4{fill:#F4AA87;}
	.st5{fill:#D84136;}
	.st6{fill:#FFFFFF;}
	.st7{fill:#332A28;}
	.st8{fill:#A7363A;}
	.st9{fill:#5D3715;}
	.st10{opacity:0.66;}
	.st11{clip-path:url(#SVGID_2_);}
	.st12{fill:#D9C3AE;}
	.st13{opacity:0.67;}
	.st14{fill:#8F8338;}
	.st15{opacity:0.71;}
	.st16{fill:#E5E5E4;}
	.st17{fill:#9B5E26;}
	.st18{opacity:0.78;}
	.st19{fill:#D66102;}
	.st20{opacity:0.68;}
	.st21{fill:#298A87;}
	.st22{opacity:0.69;}
	.st23{fill:#38221F;}
	.st24{opacity:0.76;}
	.st25{fill:#F78328;}
	.st26{fill:#7C4F25;}
</style>
<g>
	<g id="XMLID_485_">
		<g>
			
				<ellipse transform="matrix(0.9999 -0.0118 0.0118 0.9999 -7.054 10.9949)" class="st0" cx="928" cy="603.14" rx="266.95" ry="71.63"/>
		</g>
	</g>
	<g>
		<g>
			<polygon class="st1" points="869.42,630.59 839.34,643.1 839.26,642.95 835.12,634.43 837.55,632.97 837.89,632.78 
				844.07,629.09 866.44,615.7 			"/>
		</g>
	</g>
	<g>
		<g>
			<path class="st2" d="M847.59,639.67l-8.25,3.43l-4.79,1.75c-2.12,0.86-4.56,0.14-5.86-1.74c-4.1-5.9-11.92-18.1-7.76-19.93
				c5.14-2.25,15.28,8.36,16.61,9.79l6.52-3.89L847.59,639.67z"/>
		</g>
	</g>
	<g>
		<path class="st3" d="M1006.73,571.72c-2.94,6-13.67,12.95-26.05,19.32c-19.89,10.22-44.02,18.92-46.87,19.73
			c-4.64,1.3-80.47,29.59-80.47,29.59s-6.21-15.49-6.22-16.53c-0.01-1.05,67.24-36.49,67.24-36.49l26.23-14.58l1.19-0.66
			c1.97-1.09,1.51-4.05-0.7-4.5c-6.59-1.33-16.35-3.32-19.95-4.21c-5.62-1.38-21.22-4.52-21.22-4.52s-15.96,1.02-16.59,1.03
			c-0.62,0.01-17.39-13.88-17.39-13.88l2.61-7.12c0,0,1.27-3.03,31.58-6.21c14.28-1.5,32.77-0.39,32.77-0.39l46.92,5.16l26.56,2.92
			c0,0,0.47,0.9,1.06,2.5C1009.32,547.93,1012.58,559.83,1006.73,571.72z"/>
	</g>
	<g>
		<path class="st1" d="M904.39,521.04c0,0-7.19-0.07-10.5-0.39c-3.31-0.32-14.49-5.63-14.49-5.63l4.65-2.92l4.76-0.78L904.39,521.04
			z"/>
	</g>
	<g>
		<path class="st1" d="M942.89,480.19c0,0-9.01-0.02-13.42-0.79c-4.4-0.77-7.24-1.42-7.24-1.42s-4.17,17.83-7.34,22.8
			s-9.6,13.53-17.96,9.35c-8.36-4.19,1.44,10.72,10.21,12.44c10.12,1.98,15.93-1.88,22.31-11.95
			C936.1,500.15,942.89,480.19,942.89,480.19z"/>
	</g>
	<g>
		<path class="st1" d="M963.8,442.1c0,0,3.5,1.62,5.3,2.64c1.8,1.02,4.41,2.65,4.41,2.65l2.09,18.86l-21.05,10.31
			c0,0-18.81-6.94-19.05-7.56c-0.24-0.62,7.12-18.94,7.12-18.94L963.8,442.1z"/>
	</g>
	<g>
		<g id="XMLID_484_">
			<g>
				<g>
					<polygon class="st1" points="968.16,468.23 962.22,427.19 960.22,428.91 944.96,442 945.93,447.66 946.13,448.82 947.28,455.6 
											"/>
				</g>
			</g>
		</g>
		<g id="XMLID_483_">
			<g>
				<g>
					<path class="st4" d="M945.88,447.53c0.56-0.14,1.14-0.33,1.75-0.6c16.88-7.38,12.63-17.98,12.63-17.98l-0.05-0.05L944.96,442
						L945.88,447.53z"/>
				</g>
			</g>
		</g>
		<g id="XMLID_482_">
			<g>
				<g>
					<path class="st1" d="M929.23,412.43c-0.02,0.53-0.02,1.1-0.01,1.71c0.01,4.62,0.33,9.84,1.3,15.4
						c1.04,5.92,7.49,14.56,10.88,14.16c11.43-1.35,19.46-7.46,20.45-10.92l7.78-11.53l-0.74-12.38
						c0.39-10.47-8.04-19.29-18.85-19.7c-10.16-0.38-18.8,6.83-20.1,16.42c-0.08,0.59-0.13,1.2-0.16,1.81
						C929.53,406.72,929.28,408.88,929.23,412.43z"/>
				</g>
			</g>
		</g>
		<g id="XMLID_481_">
			<g>
				<g>
					<path class="st2" d="M943.78,412.08c-0.15-0.87,1.87-1.13,3.38-1.07c1.51,0.07,5.13,0.37,4.93,1.42
						c-0.2,1.05-3.95,0.44-4.18,0.43C947.68,412.86,943.96,413.12,943.78,412.08z"/>
				</g>
			</g>
		</g>
		<g id="XMLID_480_">
			<g>
				<g>
					<path class="st2" d="M929.24,412.64c-0.02,0.53-0.02,1.1-0.01,1.71c1.05-0.01,2.17-0.21,2.29-0.21
						c0.23-0.01,3.96,0.2,4.13-0.84c0.14-0.87-1.88-1.1-3.39-1.02C931.51,412.31,930.29,412.42,929.24,412.64z"/>
				</g>
			</g>
		</g>
		<g id="XMLID_479_">
			<g>
				<g>
					<path class="st5" d="M947.27,432.43c0.06,1.18-0.95,3.26-4.11,3.84c-4.53,0.86-5.45-0.58-5.88-1.69c0-0.01-0.01-0.01-0.01-0.02
						c-0.13-0.33-0.13-0.62,0.04-0.79c0.68-0.72,2.58-0.45,4.63-0.96c3.74-0.96,4.36-1.47,5.02-1.2c0.12,0.06,0.25,0.28,0.3,0.6
						C947.27,432.28,947.28,432.35,947.27,432.43z"/>
				</g>
			</g>
		</g>
		<g id="XMLID_478_">
			<g>
				<g>
					<path class="st6" d="M947.27,432.43c-0.98,0.96-2.56,1.91-4.45,2.27c-2.54,0.48-4.36,0.31-5.54-0.11
						c0-0.01-0.01-0.01-0.01-0.02c-0.13-0.33-0.13-0.62,0.04-0.79c0.68-0.72,2.58-0.45,4.63-0.96c3.74-0.96,4.36-1.47,5.02-1.2
						c0.12,0.06,0.25,0.28,0.3,0.6C947.27,432.28,947.28,432.35,947.27,432.43z"/>
				</g>
			</g>
		</g>
		<g id="XMLID_477_">
			<g>
				<g>
					<path class="st7" d="M932.76,421.11l0.63-0.06c0.48-0.05,0.83-0.47,0.79-0.95l-0.14-1.5c-0.05-0.48-0.47-0.83-0.95-0.79
						l-0.63,0.06c-0.48,0.05-0.83,0.47-0.79,0.95l0.14,1.5C931.85,420.8,932.28,421.15,932.76,421.11z"/>
				</g>
			</g>
		</g>
		<g id="XMLID_476_">
			<g>
				<g>
					<path class="st7" d="M946.64,420.12l0.62-0.06c0.48-0.05,0.83-0.47,0.79-0.95l-0.14-1.48c-0.05-0.48-0.47-0.83-0.95-0.79
						l-0.62,0.06c-0.48,0.05-0.83,0.47-0.79,0.95l0.14,1.48C945.73,419.82,946.16,420.17,946.64,420.12z"/>
				</g>
			</g>
		</g>
		<g>
			<g>
				<path class="st2" d="M929.42,408.45c0,0,1.88,2.49,11.79,1c4.06-0.61,15.19-6.28,15.19-6.28s1.35,11.18,2.26,11.43
					c0.91,0.24,3.37-2.1,5.31-0.89c1.94,1.21,1.84,6.55,0.98,8.12c-0.86,1.57-3.51,3.46-3.51,3.46l1.37,6.07
					c0,0,15.78-7.61,12.36-27.06s-18.47-19.97-19.38-20.03c-0.91-0.06-16.09-1.46-22.62,9.32
					C929.66,399.4,929.42,408.45,929.42,408.45z"/>
			</g>
		</g>
		<g>
			<g>
				<path class="st2" d="M924.37,400.84c0.16,5.15,4.93,9.17,10.65,8.99c5.72-0.18,10.23-4.5,10.06-9.65
					c-0.16-5.15-4.93-9.17-10.65-8.99C928.71,391.37,924.2,395.69,924.37,400.84z"/>
			</g>
		</g>
		<g>
			<g>
				<path class="st2" d="M959.28,388.84c0.19,5.97,5.18,10.66,11.15,10.47c5.97-0.19,10.66-5.18,10.47-11.15
					c-0.19-5.97-5.18-10.66-11.15-10.47C963.78,377.88,959.09,382.87,959.28,388.84z"/>
			</g>
		</g>
		<g>
			<g>
				<path class="st5" d="M968.22,389.2c-1.55-1.4-2.68-2.44-3.36-1.69c-0.48,0.53,0.66,1.8,2.21,3.2c1.55,1.4,2.28,3.13,3.41,1.87
					C971.32,391.66,969.78,390.6,968.22,389.2z"/>
			</g>
		</g>
		<g>
			<g>
				<path class="st4" d="M939,429.35c0.28-0.01,0.52-0.22,0.57-0.5c0.05-0.32-0.17-0.63-0.5-0.68c-0.02,0-2.48-0.4-2.95-2
					c-0.37-1.22,1.32-3.83,2.46-5.18c0.21-0.25,0.18-0.63-0.07-0.84c-0.25-0.21-0.63-0.18-0.84,0.07c-0.35,0.41-3.36,4.06-2.7,6.29
					c0.69,2.32,3.78,2.82,3.91,2.84C938.92,429.35,938.96,429.35,939,429.35z"/>
			</g>
		</g>
	</g>
	<g>
		<path class="st8" d="M942.62,450.06c0,0,2.36,12.16,12.12,11.74c10.58-0.46,13.82-17.36,13.82-17.36s14.38,3.79,20.61,10.95
			c6.64,7.64,11.95,18.69,14.46,37.96c2.51,19.27,4.28,54.9,4.28,54.9l-42.68,6.11l-22.34-22.57l-7.05-34.78
			c0,0-5.32-0.14-9.11-4.25c-3.78-4.11-6.57-11.54-6.57-11.54s2.89-18.46,11.82-25.46C937.83,451.18,942.62,450.06,942.62,450.06z"
			/>
	</g>
	<g>
		<path class="st9" d="M877.06,503.76c0.73-1.53,0.81-3.07,0.31-3.87c0.18-0.79-0.11-1.59-0.79-1.92l-6.45-1.91
			c-1.15-0.26-2.22-0.77-3.16-1.5l-5.56-3.78c-0.81-0.38-1.82,0.05-2.25,0.97c0,0-1.34,0.67-2.19,2.47
			c-0.68,1.43-0.52,3.26-0.52,3.26c-0.44,0.92-0.14,1.98,0.67,2.36l5.32,1.6c1.91,0.44,3.68,1.28,5.23,2.48l4.61,3.11
			c0.68,0.32,1.48,0.04,1.99-0.6C875.2,506.33,876.33,505.29,877.06,503.76z"/>
	</g>
	<g class="st10">
		<path class="st3" d="M1006.73,571.72c-2.94,6-13.67,12.95-26.05,19.32c-9.99-4.89-28.52-13.87-34.53-16.22
			c-1.35-0.53-3.14-1.54-5.57-2.06l1.19-0.66c1.97-1.09,1.51-4.05-0.7-4.5c-6.59-1.33-16.35-3.32-19.95-4.21
			c-5.62-1.38-21.22-4.52-21.22-4.52s-15.96,1.02-16.59,1.03c-0.62,0.01-17.39-13.88-17.39-13.88l2.61-7.12
			c0,0,1.27-3.03,31.58-6.21c14.28-1.5,32.77-0.39,32.77-0.39l46.92,5.16l27.62,5.43C1009.32,547.93,1012.58,559.83,1006.73,571.72z
			"/>
	</g>
	<g>
		<defs>
			<polygon id="SVGID_1_" points="930.98,536.31 874.4,506.15 877.23,500.19 936.39,524.9 			"/>
		</defs>
		<clipPath id="SVGID_2_">
			<use xlink:href="#SVGID_1_"  style="overflow:visible;"/>
		</clipPath>
		<g class="st11">
			<polygon class="st9" points="930.98,536.31 874.4,506.15 877.23,500.19 936.39,524.9 			"/>
		</g>
		<g class="st11">
			
				<rect x="872.93" y="503.23" transform="matrix(0.4287 -0.9034 0.9034 0.4287 45.96 1080.3932)" class="st12" width="8.65" height="1.25"/>
		</g>
		<g class="st11">
			
				<rect x="876.49" y="505.68" transform="matrix(0.4271 -0.9042 0.9042 0.4271 47.6397 1087.1821)" class="st12" width="10.57" height="0.62"/>
		</g>
		<g class="st11">
			<polygon class="st12" points="884.19,512.99 883.63,512.73 888.16,503.17 888.72,503.44 			"/>
		</g>
		<g class="st11">
			<polygon class="st12" points="888.6,515.08 888.03,514.81 892.56,505.26 893.12,505.53 			"/>
		</g>
		<g class="st11">
			<polygon class="st12" points="893,517.17 892.44,516.9 896.96,507.35 897.53,507.62 			"/>
		</g>
		<g class="st11">
			<polygon class="st12" points="897.4,519.25 896.84,518.99 901.37,509.44 901.93,509.7 			"/>
		</g>
		<g class="st11">
			<polygon class="st12" points="901.81,521.34 901.24,521.08 905.77,511.52 906.34,511.79 			"/>
		</g>
		<g class="st11">
			<polygon class="st12" points="906.21,523.43 905.65,523.16 910.18,513.61 910.74,513.88 			"/>
		</g>
		<g class="st11">
			<polygon class="st12" points="910.61,525.52 910.05,525.25 914.58,515.7 915.14,515.96 			"/>
		</g>
		<g class="st11">
			<polygon class="st12" points="914.26,528.94 913.69,528.68 919.54,516.35 920.1,516.61 			"/>
		</g>
	</g>
	<g>
		<path class="st12" d="M993.53,524.79c-10.48-4.97-21.67-5.58-30.82-2.53c-2.85-4.93-7.29-9.19-13.03-11.91
			c-13.89-6.58-22.45,1.82-28.4,14.37c-5.95,12.55-7.03,24.5,6.86,31.09c5.74,2.72,11.85,3.46,17.46,2.55
			c3.43,9.01,10.99,17.29,21.47,22.26c18.94,8.98,29.96-1.1,37.27-16.52C1011.64,548.68,1012.47,533.77,993.53,524.79z"/>
	</g>
	<g>
		
			<ellipse transform="matrix(0.8662 -0.4997 0.4997 0.8662 -141.6011 545.1213)" class="st9" cx="947.14" cy="536.98" rx="8.08" ry="8.08"/>
	</g>
	<g>
		
			<rect x="925.72" y="469.66" transform="matrix(0.3915 -0.9202 0.9202 0.3915 82.8557 1170.0079)" class="st6" width="0.7" height="105.4"/>
	</g>
	<g>
		
			<rect x="924.2" y="472.36" transform="matrix(0.4124 -0.911 0.911 0.4124 65.3042 1150.5029)" class="st6" width="0.7" height="104.52"/>
	</g>
	<g>
		
			<rect x="922.98" y="474.94" transform="matrix(0.4335 -0.9012 0.9012 0.4335 47.9855 1130.7278)" class="st6" width="0.7" height="104.51"/>
	</g>
	<g>
		
			<rect x="921.85" y="477.31" transform="matrix(0.4558 -0.8901 0.8901 0.4558 30.5083 1109.0677)" class="st6" width="0.7" height="104.56"/>
	</g>
	<g>
		<path class="st9" d="M969.28,557.69l-1.62-0.77c-0.27-0.13-0.38-0.45-0.26-0.71l7.45-15.71c0.13-0.27,0.45-0.38,0.71-0.25
			l1.62,0.77c0.27,0.13,0.38,0.45,0.26,0.71l-7.45,15.71C969.87,557.71,969.55,557.82,969.28,557.69z"/>
	</g>
	<g>
		<path class="st1" d="M996.38,485.97c0,0-7.62,4.81-11.75,6.52c-4.13,1.71-6.87,2.68-6.87,2.68s6.03,17.29,6.02,23.19
			c-0.01,5.9-1.54,15.15-10.85,16.09c-9.31,0.94-15.8,1.22-15.8,1.22s-7.21-5.83-11.81-3.6c-4.6,2.23-15.32,3.71-12.65,9.28
			c2.66,5.57,12.41,7.21,15.06,6.94c2.65-0.26,9.51-2.88,9.51-2.88s23.59,0.07,31.92-3.18c9.61-3.75,12.18-11.47,12.18-23.39
			C1001.33,506.46,996.38,485.97,996.38,485.97z"/>
	</g>
	<g>
		<path class="st1" d="M886.86,514.31c0.03,2.8-2.95,3.59-7.81,1.38c-4.38-2-6.35-5.1-5.23-7.67c1.76-4.04,8.1-5.28,9.99-4.37
			C886.44,504.9,886.78,507.93,886.86,514.31z"/>
	</g>
	<g class="st13">
		<path class="st8" d="M935.81,495.77c-0.3,0-0.57-0.22-0.62-0.53c-0.02-0.13-2.05-13.04-2.53-19.01l-0.49-6.01
			c-0.03-0.34,0.23-0.64,0.57-0.67c0.33-0.03,0.64,0.23,0.67,0.57l0.49,6.01c0.48,5.92,2.5,18.78,2.52,18.91
			c0.05,0.34-0.18,0.66-0.52,0.71C935.87,495.77,935.84,495.77,935.81,495.77z"/>
	</g>
	<g class="st13">
		<path class="st8" d="M976.45,494.25c-0.26,0-0.5-0.16-0.59-0.41c-0.03-0.08-2.82-7.88-4.54-14c-1.92-6.84-2.32-11.41-2.34-11.61
			c-0.03-0.34,0.23-0.64,0.57-0.67c0.31-0.03,0.64,0.22,0.67,0.57c0,0.05,0.41,4.66,2.29,11.38c1.7,6.08,4.48,13.84,4.51,13.91
			c0.12,0.32-0.05,0.68-0.38,0.8C976.58,494.24,976.52,494.25,976.45,494.25z"/>
	</g>
	<g>
		
			<ellipse transform="matrix(0.774 -0.6332 0.6332 0.774 -159.1555 694.2529)" class="st3" cx="892.91" cy="570.07" rx="12.97" ry="39.71"/>
	</g>
	<g>
		<g>
			<g>
				<path class="st14" d="M1058.37,569.4c0,0-21.66,8.78-22.95,16.74c-1.29,7.96,7.83,9.87,7.83,9.87l29.34-12.84l4.59-19.86
					L1058.37,569.4z"/>
			</g>
		</g>
		<g class="st15">
			<g>
				<path class="st14" d="M1058.37,569.4c0,0-21.66,8.78-22.95,16.74c-1.29,7.96,7.83,9.87,7.83,9.87l29.34-12.84l4.59-19.86
					L1058.37,569.4z"/>
			</g>
		</g>
		<g>
			<g>
				<g>
					<path class="st4" d="M1027.79,559.12c0.25,0.94,3.04,2.17,4.25,2.39c1.94,0.36,4.3,0.09,7.47-2.63
						c3.16-2.71,5.08-4.53,5.08-4.53s14.08-6.63,19.29-16.23c5.22-9.6,6.57-13.45,6.22-18.26c-0.14-1.79-1.71-6.6-5.98-4.05
						c-0.27,0.16-0.56,0.35-0.85,0.58c-4.14,3.17-6.52,14.12-8.02,18.93c-0.28,0.88-0.53,1.57-0.76,1.95
						c-1.43,2.39-9.62,9.87-11.34,10.91c-1.22,0.73-4.28,2.36-6.81,3.09c0,0-6.53,0.94-6.6,1.89c0,0.02,0.01,0.03,0.01,0.06
						c0.13,0.62,1.32,0.72,2.18,0.72C1029.95,555.81,1027.61,558.45,1027.79,559.12z"/>
				</g>
			</g>
		</g>
		<g>
			<g>
				<g>
					<g>
						<polygon class="st1" points="1063.56,591.18 1083.78,591.55 1084.02,597.52 1061.54,600.39 						"/>
					</g>
				</g>
			</g>
			<g>
				<g>
					<g>
						<path class="st2" d="M1079.35,591.47l8.7,0.26c1.42,0.04,2.62,1.06,2.9,2.45c0.87,4.37,2.28,13.26-0.54,13.26
							c-3.74,0-7.06-9.83-7.06-9.83l-3.73,0.48L1079.35,591.47z"/>
					</g>
				</g>
			</g>
		</g>
		<g>
			<g>
				<g>
					<path class="st14" d="M1062.38,571.25c0,0-18.7,10.29-20.04,18.71c-1.33,8.42,5.31,12.2,15.6,10.89
						c10.29-1.31,12.63-1.61,12.63-1.61l0.6-7.79c0,0,18.09-1.88,21.18-9.5s0.01-19.71,0.01-19.71L1062.38,571.25z"/>
				</g>
			</g>
		</g>
		<g>
			<g>
				<g>
					<path class="st16" d="M1054.76,534.82c-0.05,0.16,0.02,0.32,0.17,0.4c0.66,0.32,1.61,0.73,2.02,0.87
						c1.78,0.55,4.26,0.97,4.26,0.97l7.2-15.82l-0.48-5.38l-3.82-0.04c-0.27,0.16-0.56,0.35-0.85,0.58
						C1059.21,519.5,1056.29,529.89,1054.76,534.82z"/>
				</g>
			</g>
		</g>
		<g>
			<g>
				<g>
					<path class="st16" d="M1054.76,534.82c-0.05,0.16,0.02,0.32,0.17,0.4c0.66,0.32,1.61,0.73,2.02,0.87
						c1.78,0.55,4.26,0.97,4.26,0.97l7.2-15.82l-0.48-5.38l-3.82-0.04c-0.27,0.16-0.56,0.35-0.85,0.58
						C1059.21,519.5,1056.29,529.89,1054.76,534.82z"/>
				</g>
			</g>
		</g>
		<g>
			<g>
				<g>
					<path class="st17" d="M1050.95,480.16c0,0-2.89,1.49-2.27,6.08c0.62,4.59,20.76,14.78,20.76,14.78l2.21,4.61l6.12-13.02
						l-0.73-13.39L1050.95,480.16z"/>
				</g>
			</g>
		</g>
		<g>
			<g>
				<g>
					<polygon class="st1" points="1062.14,506.95 1062.67,508.88 1063.11,510.5 1064.38,515.2 1070.99,517.45 1076.92,511.72 
						1073.33,506.09 1072.27,504.42 1069.81,500.56 1069.69,500.36 1068.92,501.04 					"/>
				</g>
			</g>
		</g>
		<g>
			<g>
				<g>
					<path class="st4" d="M1062.14,506.95l0.53,1.93c0.84,0.09,1.61,0.1,2.22-0.01c1.83-0.29,5.24-2.86,7.35-4.51l-2.43-3.81
						l-0.12-0.2l-0.77,0.67L1062.14,506.95z"/>
				</g>
			</g>
		</g>
		<g id="XMLID_455_">
			<g>
				<g>
					<path class="st1" d="M1078.03,495.1c-0.18,2.7-3.41,4.7-5.39,4.83l0,0.07c-7.1,10.08-13.47,8.64-13.47,8.64
						c-4.08-0.21-6.69-4.72-7.41-10.05c-0.61-4.54-0.49-8.12-0.31-10.17c0.05-0.57,0.1-1.01,0.15-1.33
						c0.05-0.39,0.08-0.59,0.08-0.59c0.18-2.67,1.7-4.57,3.9-5.75c2.21-1.18,5.08-1.64,7.96-1.45c5.76,0.39,10.15,5.04,9.79,10.4
						l-0.03,0.46c0.5-0.32,1.04-0.5,1.59-0.46C1076.81,489.82,1078.22,492.25,1078.03,495.1z"/>
				</g>
			</g>
		</g>
		<g id="XMLID_454_">
			<g>
				<g>
					<path class="st7" d="M1053.23,494.2l-0.28-0.02c-0.48-0.03-0.85-0.45-0.82-0.94l0.07-1.02c0.03-0.48,0.45-0.85,0.94-0.82
						l0.28,0.02c0.48,0.03,0.85,0.45,0.82,0.94l-0.07,1.02C1054.14,493.87,1053.72,494.23,1053.23,494.2z"/>
				</g>
			</g>
		</g>
		<g id="XMLID_453_">
			<g>
				<g>
					<path class="st7" d="M1061.86,494.6l-0.28-0.02c-0.48-0.03-0.85-0.45-0.82-0.94l0.07-1.02c0.03-0.48,0.45-0.85,0.94-0.82
						l0.28,0.02c0.48,0.03,0.85,0.45,0.82,0.94l-0.07,1.02C1062.77,494.27,1062.35,494.64,1061.86,494.6z"/>
				</g>
			</g>
		</g>
		<g id="XMLID_452_">
			<g>
				<g>
					<path class="st17" d="M1054.22,488.2c0.12,0.4-1.99,0.7-2.78,0.74c0,0-0.01,0-0.02,0c0.05-0.57,0.1-1.01,0.15-1.33
						C1052.63,487.58,1054.06,487.67,1054.22,488.2z"/>
				</g>
			</g>
		</g>
		<g id="XMLID_451_">
			<g>
				<g>
					<path class="st17" d="M1065.42,488.7c-0.14-0.85-1.18-0.73-2.18-0.83c-1-0.09-3.15-0.18-3.37,0.49
						c-0.13,0.4,1.97,0.74,2.76,0.8C1062.79,489.17,1065.53,489.39,1065.42,488.7z"/>
				</g>
			</g>
		</g>
		<g id="XMLID_449_">
			<g id="XMLID_450_">
				<g>
					<g>
						<path class="st4" d="M1055.79,499.24c-0.03,0-0.06-0.01-0.09-0.02c-0.1-0.03-2.5-0.79-2.37-2.4c0.05-0.67,1.8-2.8,2.55-3.68
							c0.14-0.16,0.39-0.18,0.55-0.04c0.16,0.14,0.18,0.38,0.04,0.55c-1.09,1.29-2.31,2.89-2.37,3.25
							c-0.08,0.97,1.81,1.58,1.82,1.59c0.2,0.06,0.32,0.28,0.26,0.49C1056.14,499.15,1055.97,499.26,1055.79,499.24z"/>
					</g>
				</g>
			</g>
		</g>
		<g>
			<g>
				<g>
					<path class="st5" d="M1057.27,504.38c-3.15-0.13-4.11-2.18-3.51-2.79c0.02-0.02,0.05-0.04,0.07-0.06
						c0.71-0.51,3.26,0.06,3.26,0.06c0.78,0.03,2.81-0.43,3.69,0.24c0.04,0.04,0.09,0.06,0.12,0.11
						C1061.55,502.68,1060.26,504.49,1057.27,504.38z"/>
				</g>
			</g>
		</g>
		<g>
			<g>
				<g>
					<path class="st6" d="M1060.9,501.93c-0.47,0.7-1.68,1.38-3.56,1.3c-2-0.08-3.13-0.94-3.51-1.71c0.71-0.51,3.26,0.06,3.26,0.06
						c0.78,0.03,2.81-0.43,3.69,0.24C1060.83,501.86,1060.87,501.88,1060.9,501.93z"/>
				</g>
			</g>
		</g>
		<g>
			<g>
				<g>
					<path class="st17" d="M1073.3,490.15c0,0-1.32,3.32-2.58,1.47c-1.26-1.85-0.62-5.53-1.59-5.78c-0.97-0.25-2.17-3.21-2.17-3.21
						s-1.09,1.04-2.84,0.74c-1.75-0.3-2.27-1.73-2.27-1.73s-2.11,2.09-4.62,1.92s-4.02-0.93-4.02-0.93s-7.03,0.56-6-3.74
						c1.03-4.3,5.34-7.64,8.58-6.68c3.24,0.96,3.62-2.08,7.16-1.38c3.54,0.7,7.16-3.05,11.62,0.22c4.46,3.27,3.83,7.44,4.44,9.28
						c0.61,1.84,2.47,4.66,1.59,6.65c-0.88,1.99-2.84,5.62-2.84,5.62l-2.17-8.65L1073.3,490.15z"/>
				</g>
			</g>
		</g>
		<g>
			<g>
				<g>
					<path class="st16" d="M1073.84,506.83l-9.99,6.42c0,0-3.5,4.72-4.88,11.59c-1.39,6.88-0.24,27.19-1.4,31.23
						c-0.35,1.2-1.8,16.13-0.16,16.41c1.79,0.3,11.05,1.84,19.9,1.28c8.96-0.57,17.51-3.23,17.6-3.84
						c1.22-8.15-2.87-23.45-4.95-32.58C1084.16,511.87,1073.84,506.83,1073.84,506.83z"/>
				</g>
			</g>
		</g>
		<g class="st18">
			<g>
				<g>
					<g>
						<path class="st14" d="M1070.3,592.11c0.28-0.04,0.49-0.28,0.49-0.57c-0.01-0.31-0.27-0.55-0.57-0.54
							c-0.07,0-6.91,0.22-10.04,0.05c-3.08-0.17-4.73-0.58-4.75-0.58c-0.3-0.07-0.6,0.11-0.67,0.4c-0.07,0.3,0.11,0.6,0.4,0.67
							c0.07,0.02,1.75,0.43,4.96,0.61c3.18,0.18,9.85-0.04,10.13-0.04C1070.27,592.11,1070.28,592.11,1070.3,592.11z"/>
					</g>
				</g>
			</g>
		</g>
		<g>
			<g>
				<g>
					<path class="st1" d="M1061.95,578.72c0.67,0.7,3.71,0.44,4.87,0.05c1.88-0.62,3.82-2.01,5.27-5.91
						c1.46-3.92,2.26-6.43,2.26-6.43s8.78-12.13,9.04-22.9c-1.59,0.27-3.96,0.63-5.09,0.69c-0.87,0.05-2.59-0.44-4.1-0.94
						c0.35,1.56,0.59,2.77,0.57,3.4c-0.11,2.79-3.66,13.3-4.66,15.03c-0.72,1.24-2.61,4.12-4.48,6l0-0.02c0,0-5.46,4.15-4.82,4.9
						c0.4,0.49,1.51-0.01,2.25-0.42C1062.24,574.78,1061.46,578.22,1061.95,578.72z"/>
				</g>
			</g>
		</g>
		<g>
			<path class="st16" d="M1084.08,543.28c-0.03,0-0.07,0-0.1-0.01c-0.32-0.05-0.53-0.35-0.48-0.66c0.01-0.07,1.09-6.98-0.17-17.12
				c-0.43-3.51-0.74-4.38-0.75-4.42c-0.11-0.3,0.04-0.63,0.34-0.74c0.3-0.11,0.63,0.03,0.74,0.33c0.04,0.09,0.37,1.01,0.82,4.69
				c1.28,10.32,0.18,17.38,0.16,17.45C1084.6,543.07,1084.35,543.27,1084.08,543.28z"/>
		</g>
		<g>
			<path class="st16" d="M1073.43,543.4c-0.27,0-0.52-0.19-0.57-0.46c-0.08-0.38-1.9-9.23-2.24-12.95
				c-0.45-4.93,0.02-8.89,0.04-9.05c0.04-0.32,0.33-0.55,0.65-0.51c0.32,0.04,0.55,0.33,0.51,0.65c-0.01,0.04-0.47,4.01-0.04,8.81
				c0.33,3.65,2.2,12.73,2.22,12.82c0.06,0.31-0.14,0.62-0.45,0.69C1073.5,543.4,1073.47,543.4,1073.43,543.4z"/>
		</g>
	</g>
	<g>
		<g>
			<g>
				<g>
					<path class="st4" d="M1119.07,544.17c-0.92,0.33-1.9,3.22-2.02,4.44c-0.2,1.96,0.28,4.29,3.27,7.22
						c2.97,2.92,4.95,4.67,4.95,4.67s7.82,13.46,17.83,17.82c10.01,4.37,13.96,5.39,18.73,4.63c1.78-0.29,6.42-2.27,3.52-6.3
						c-0.18-0.25-0.4-0.53-0.65-0.8c-3.51-3.85-14.63-5.28-19.55-6.36c-0.91-0.21-1.61-0.39-2-0.59
						c-2.51-1.22-10.67-8.74-11.84-10.36c-0.83-1.15-2.72-4.06-3.67-6.52c0,0-1.5-6.43-2.45-6.41c-0.02,0-0.03,0.01-0.06,0.01
						c-0.61,0.18-0.61,1.38-0.52,2.24C1122.55,546.05,1119.72,543.94,1119.07,544.17z"/>
				</g>
			</g>
		</g>
		<g>
			<g>
				<g>
					<path class="st1" d="M1106.46,549.74c-0.88,0.42-1.59,3.39-1.59,4.6c0,1.98,0.7,4.26,3.95,6.87c3.25,2.62,5.39,4.17,5.39,4.17
						s8.74,12.16,18.87,15.8c0.25-1.59,0.65-3.96,0.95-5.05c0.23-0.85,1.23-2.32,2.18-3.59c-1.59-0.16-2.81-0.31-3.41-0.53
						c-2.62-0.98-11.46-7.67-12.79-9.17c-0.95-1.07-3.08-3.77-4.28-6.15l0.01,0.01c0,0-2.21-6.49-3.12-6.12
						c-0.59,0.23-0.46,1.43-0.31,2.26C1110.1,551.27,1107.09,549.44,1106.46,549.74z"/>
				</g>
			</g>
		</g>
		<g>
			<g>
				<path class="st9" d="M1164.75,541.18c0,0-1.41,17.14-8.94,18.41c-3.57,0.6-5.93-11.46-5.93-11.46l-15.23-7.17
					c0,0-2.04-0.17-2.83-1.36c-0.79-1.19-0.08-6.45-0.08-6.45l9.79-6.13l11.65,2.19L1164.75,541.18z"/>
			</g>
		</g>
		<g id="XMLID_448_">
			<g>
				<g>
					<path class="st1" d="M1165.22,640.64c0,0,4.1-0.02,8,0.12c2.94,0.12,5.73,0.33,6.61,0.71c2.03,0.9,2.39,15.09-1.62,15.4
						c-2,0.16-3.66-6.42-4.82-7.49c-0.25-0.22-0.88-0.37-1.72-0.44c-3.15-0.31-9.44-0.51-9.44-0.51L1165.22,640.64z"/>
				</g>
			</g>
		</g>
		<g id="XMLID_447_">
			<g>
				<g>
					<path class="st2" d="M1173.22,640.76c2.94,0.12,5.73,0.33,6.61,0.71c2.03,0.9,2.39,15.09-1.62,15.4
						c-2,0.16-3.66-6.42-4.82-7.49c-0.25-0.22-0.88-0.37-1.72-0.44c0,0,1.47-1.87,1.69-3.75
						C1173.72,642.15,1173.22,640.76,1173.22,640.76z"/>
				</g>
			</g>
		</g>
		<g id="XMLID_446_">
			<g>
				<g>
					<path class="st2" d="M1183.24,625.91c2.94,0.12,5.73,0.33,6.61,0.71c2.03,0.9,2.39,15.09-1.62,15.4
						c-2,0.16-3.66-6.42-4.82-7.49c-0.25-0.22-0.88-0.37-1.72-0.44c0,0,1.47-1.87,1.69-3.75
						C1183.75,627.3,1183.24,625.91,1183.24,625.91z"/>
				</g>
			</g>
		</g>
		<g id="XMLID_445_">
			<g>
				<g>
					<path class="st19" d="M1154.21,616.48c0,0-26.22-0.1-26.36,8.63c-0.14,8.73,13.34,10.3,13.34,10.3l14.1-5.42
						c0,0,11.97-13.94,10.51-14.05C1164.33,615.84,1154.21,616.48,1154.21,616.48z"/>
				</g>
			</g>
		</g>
		<g id="XMLID_444_" class="st20">
			<g>
				<g>
					<path class="st19" d="M1154.21,616.48c0,0-26.22-0.1-26.36,8.63c-0.14,8.73,13.34,10.3,13.34,10.3l14.1-5.42
						c0,0,11.97-13.94,10.51-14.05C1164.33,615.84,1154.21,616.48,1154.21,616.48z"/>
				</g>
			</g>
		</g>
		<g id="XMLID_443_">
			<g>
				<g>
					<path class="st19" d="M1127.58,640.91c2.05,7.24,37.13,8.71,37.13,8.71s1.06-1.78,1.49-4.59c0.29-1.95,0.12-3.48-0.02-4.23
						c-0.05-0.33-0.1-0.51-0.1-0.51s11.05-1.32,15.02-4.79s3.35-12.58,3.35-12.58l-7.52-2.91l-8.17-1.25l-19.87,4.05
						c0,0-4.58,1.18-11.8,4.38C1128.44,631.03,1126.08,635.6,1127.58,640.91z"/>
				</g>
			</g>
		</g>
		<g id="XMLID_442_">
			<g>
				<g>
					<path class="st21" d="M1151.1,564.82c0,0-7.79,1.05-11.37-0.44c-3.58-1.49-8.39-6.76-8.39-6.76s-1.64-0.15-3.21,1.04
						c-1.57,1.19-2.26,4.11-2.26,4.11s2.93,5.91,5.79,8.2c2.86,2.29,9.2,4.63,9.2,4.63s7.89,0.45,8.59,0.23
						C1150.15,575.61,1151.1,564.82,1151.1,564.82z"/>
				</g>
			</g>
		</g>
		<g id="XMLID_441_" class="st13">
			<g>
				<g>
					<path class="st21" d="M1151.1,564.82c0,0-7.79,1.05-11.37-0.44c-3.58-1.49-8.39-6.76-8.39-6.76s-1.64-0.15-3.21,1.04
						c-1.57,1.19-2.26,4.11-2.26,4.11s2.93,5.91,5.79,8.2c2.86,2.29,9.2,4.63,9.2,4.63s7.89,0.45,8.59,0.23
						C1150.15,575.61,1151.1,564.82,1151.1,564.82z"/>
				</g>
			</g>
		</g>
		<g id="XMLID_440_">
			<g>
				<g>
					<polygon class="st1" points="1145.98,558.51 1148.26,564.11 1151.06,571 1163.24,566.95 1154.8,551.99 1153.97,550.52 
						1153.8,550.21 1153.15,550.9 					"/>
				</g>
			</g>
		</g>
		<g id="XMLID_439_">
			<g>
				<g>
					<path class="st4" d="M1145.98,558.51l2.28,5.6c2.37-1.29,4.43-2.72,5.11-4.07c1.24-2.46,1.44-5.94,1.43-8.06
						c0-1.11-0.06-1.84-0.06-1.84l-0.77,0.36l-0.82,0.38L1145.98,558.51z"/>
				</g>
			</g>
		</g>
		<g id="XMLID_438_">
			<g>
				<g>
					<path class="st1" d="M1159.23,545.33l-1.39,7.19c-1.09,0.71-2.35,1.08-3.28,1.05l-0.01,0.07c-0.02,0.02-0.04,0.04-0.05,0.06
						c-7.55,8.7-13.41,6.86-13.41,6.86c-2.61-0.35-4.4-2.5-5.35-5.4c-0.16-0.48-0.28-0.96-0.4-1.47c-0.08-0.36-0.15-0.73-0.21-1.11
						c-0.09-0.63-0.16-1.28-0.18-1.94c-0.01-0.21-2.17-0.58-2.66-1.8c-0.17-0.41,1.05-1.21,1.63-2.26c0.57-1.05,1.16-2.04,1.16-2.04
						c0.12-1.38,0.29-2.51,0.44-3.36c0.1-0.51,0.18-0.93,0.25-1.23c0.09-0.35,0.13-0.53,0.13-0.53c0.4-2.45,1.33-7.77,3.5-8.69
						c2.19-0.92,5.61,2.56,8.32,2.98c3.36,0.5,6.07,2.5,7.47,5.11l0,0.01c0.85,1.61,1.2,3.44,0.9,5.32c0,0,0.96,0.04,1.48,0.12
						C1158.21,544.37,1158.79,544.75,1159.23,545.33z"/>
				</g>
			</g>
		</g>
		<g id="XMLID_437_">
			<g>
				<g>
					<path class="st7" d="M1137.77,545.21L1137.77,545.21c-0.53-0.08-0.89-0.57-0.8-1.08l0.11-0.68c0.08-0.52,0.58-0.87,1.11-0.79
						l0,0c0.53,0.08,0.89,0.57,0.8,1.08l-0.11,0.68C1138.79,544.94,1138.29,545.3,1137.77,545.21z"/>
				</g>
			</g>
		</g>
		<g id="XMLID_436_">
			<g>
				<g>
					<path class="st9" d="M1142.04,541.24c-0.06-0.8-1.05-0.78-1.99-0.94c-0.94-0.17-2.96-0.42-3.23,0.18
						c-0.16,0.36,1.8,0.85,2.54,0.97C1139.51,541.47,1142.08,541.89,1142.04,541.24z"/>
				</g>
			</g>
		</g>
		<g id="XMLID_435_">
			<g>
				<g>
					<path class="st6" d="M1140.46,553.46c0,0.22-0.14,0.48-0.39,0.76l-0.01,0c-0.66,0.68-2.08,1.31-3.85,1.04
						c-0.16-0.02-0.32-0.06-0.47-0.09c-0.09-0.29-0.18-0.59-0.26-0.89c-0.03-0.12-0.06-0.25-0.08-0.37
						c-0.02-0.07-0.04-0.13-0.05-0.2c-0.01-0.03-0.01-0.06-0.02-0.09c-0.07-0.34-0.14-0.68-0.19-1.02c0.34,0.04,0.76,0.1,1.24,0.15
						c0.96,0.11,2.01-0.02,2.82,0.04c0.24,0.01,0.46,0.04,0.66,0.1c0.17,0.06,0.32,0.13,0.45,0.23
						C1140.41,553.2,1140.46,553.32,1140.46,553.46z"/>
				</g>
			</g>
		</g>
		<g class="st22">
			<g>
				<g>
					<path class="st19" d="M1165.24,640.5c0.17-0.05,0.3-0.18,0.35-0.36c0.07-0.27-0.09-0.54-0.36-0.61
						c-0.35-0.09-8.64-2.25-12.04-2.78c-3.43-0.54-6.22-0.34-6.33-0.33c-0.27,0.02-0.48,0.26-0.46,0.54
						c0.02,0.28,0.26,0.48,0.54,0.46c0.03,0,2.8-0.2,6.1,0.32c3.35,0.52,11.86,2.73,11.94,2.76
						C1165.07,640.53,1165.16,640.53,1165.24,640.5z"/>
				</g>
			</g>
		</g>
		<g>
			<g>
				<path class="st21" d="M1187.84,618.32c-1.42-2.73-0.81-9.45-2.07-13c-1.26-3.55-1.39-11.52-8.58-25.74
					c-2.92-5.78-5.23-9.24-6.75-11.79c-3.25-5.46-4.49-10.59-11.12-9.01c-0.9,0.21-10.42,5.34-15.98,7.93
					c-3.17,1.48-7.13,4.22-11.15,2.2c-6.34-3.19-11.76-8.29-12.96-8.07c-1.2,0.21-3.49,8.02-3.49,8.02s9.4,10.68,15.77,13.23
					c3.12,1.25,7.85,2.28,11.86,3l3.49,13.15l1.29,19.32c0,0-1.9,4.58-0.88,6.24c1.03,1.66,9.56,1.34,12.21,2.67
					c2.65,1.34,13.44,4.93,21.15,1.32C1188.32,624.17,1189.26,621.04,1187.84,618.32z"/>
			</g>
		</g>
		<g>
			<g>
				<path class="st9" d="M1133.37,537.54c0.97,0.06,17.37-0.8,15.95,2.85c-2.03,5.23,5.58,0.16,5.58,0.16l8.82,6.95
					c0,0,4.26-11.28,2.02-16.7c-1.16-2.8-7.42-4.79-9.02-6c-5.82-4.41-8.82-4.07-12.37-3.94c-4.79,0.18-9.15,1.81-10.46,2.93
					C1122.5,533.56,1133.37,537.54,1133.37,537.54z"/>
			</g>
		</g>
		<g>
			<g>
				<path class="st9" d="M1161.57,541.05l-0.93,4.89l-1.56,8.08l-0.59,3.13c0,0-2.3-0.96-2.89-1.41c-0.07-0.06-0.16-0.19-0.26-0.39
					c-0.77-1.46-2.34-6.22-2.14-6.31c0.24-0.1,0.26-0.1,1.12-1.14c0.88-1.04,1.13-3.43,0.29-4.97c-0.84-1.53-3.44-0.45-3.44-0.45
					s0.5-1.84,0.6-2.3c0.1-0.45,3.64-1.59,3.99-1.62c0.05,0,0.16,0.03,0.33,0.09v0.01C1157.34,539.08,1161.57,541.05,1161.57,541.05
					z"/>
			</g>
		</g>
	</g>
	<g>
		<g>
			<path class="st19" d="M697.97,514.32l-1.49,16.95l-3.29,28.22c0,0,25.06-2.93,25.94-1.87c0.88,1.06,7.92,1.71,9.72-0.19
				c4.39-4.62,0.07-43.58-0.58-48.87s-8.48-7.82-8.48-7.82L697.97,514.32z"/>
		</g>
		<g id="XMLID_434_">
			<g>
				<path class="st1" d="M730.87,586.11c0,0,4.94,10.59,9.23,18.81c2.57,4.96,4.05,7.39,4.91,7.8c2.3,1.1,11.8-1.94,13.87-3.59
					c2.07-1.63,3.87-2.99,2.03-5.25c-1.83-2.26-10.42-0.76-11.38-1.04c-0.19-0.05-0.59-1-1.09-2.44
					c-1.86-5.37-5.14-17.75-5.14-17.75L730.87,586.11z"/>
			</g>
		</g>
		<g id="XMLID_433_">
			<g>
				<path class="st23" d="M740.1,604.91c2.57,4.96,4.05,7.39,4.91,7.8c2.3,1.1,11.8-1.94,13.87-3.59c2.07-1.63,3.87-2.99,2.03-5.25
					c-1.83-2.26-10.42-0.76-11.38-1.04c-0.19-0.05-0.59-1-1.09-2.44c-1.29,0.25-2.98,0.72-4.34,1.49
					C742.75,602.66,741.23,603.91,740.1,604.91z"/>
			</g>
		</g>
		<g id="XMLID_432_">
			<g>
				<path class="st1" d="M708.75,542.88c3.52-5.27,18.99-8.47,21.35-10.1c2.36-1.63,9.91-10.36,10.85-12.18
					c0.67-1.3,1.1-4.93,1.69-7.58l0,0c0,0,0.56-7,1.56-6.87c0.64,0.08,0.83,1.31,0.88,2.18c1.79-2.14,4.34-4.72,5.04-4.58
					c0.98,0.19,2.43,2.97,2.73,4.18c0.5,1.97,0.37,4.41-2.2,7.82c-2.57,3.42-4.3,5.51-4.3,5.51s-5.85,14.84-15.33,20.81
					c-9.48,5.97-13.32,7.61-18.27,7.58C710.79,549.62,705.23,548.14,708.75,542.88z"/>
			</g>
		</g>
		<g id="XMLID_431_">
			<g>
				<polygon class="st1" points="701.03,538.92 706.03,544.19 712.93,542.26 714.49,537.51 715.68,533.94 709.08,527.5 
					705.69,525.18 				"/>
			</g>
		</g>
		<g id="XMLID_430_">
			<g>
				<path class="st4" d="M706.43,527.88c0,0,0.86,7.15,5.16,9.53c0.69,0.38,1.79,0.18,2.9,0.1l1.19-3.58l-6.61-6.44
					c-0.37-0.22-0.68-0.41-0.89-0.54L706.43,527.88z"/>
			</g>
		</g>
		<g id="XMLID_429_">
			<g>
				<path class="st1" d="M701.24,521.42c0.21,1.74,2.06,4.49,4.08,4.73l0,0.07c6.14,9.22,14.86,8.29,14.86,8.29
					c2.56,0,5.55-3.14,6.6-8.55c0.88-4.61,0.96-8.29,0.89-10.4c-0.02-0.58-0.05-1.04-0.07-1.37c-0.03-0.4-0.05-0.6-0.05-0.6
					c-0.03-2.74-1.48-4.78-3.67-6.11c-2.2-1.33-5.1-1.97-8.07-1.94c-5.92,0.07-10.68,4.59-10.61,10.09l0.01,0.47
					c-0.49-0.36-1.03-0.57-1.6-0.56C701.63,515.57,700.88,518.51,701.24,521.42z"/>
			</g>
		</g>
		<g id="XMLID_428_">
			<g>
				<path class="st7" d="M725.49,520.85l0.35,0c0.48-0.01,0.87-0.4,0.86-0.88l-0.01-1.11c-0.01-0.48-0.4-0.87-0.88-0.86l-0.35,0
					c-0.48,0.01-0.87,0.4-0.86,0.88l0.01,1.11C724.61,520.47,725,520.86,725.49,520.85z"/>
			</g>
		</g>
		<g id="XMLID_427_">
			<g>
				<path class="st7" d="M717.38,520.52l0.35,0c0.48-0.01,0.87-0.4,0.86-0.88l-0.01-1.11c-0.01-0.48-0.4-0.87-0.88-0.86l-0.35,0
					c-0.48,0.01-0.87,0.4-0.86,0.88l0.01,1.11C716.51,520.14,716.9,520.52,717.38,520.52z"/>
			</g>
		</g>
		<g id="XMLID_426_">
			<g>
				<path class="st19" d="M724.85,514.65c-0.14,0.4,2,0.83,2.81,0.91c0,0,0.01,0,0.02,0c-0.02-0.58-0.05-1.04-0.07-1.37
					C726.51,514.11,725.05,514.12,724.85,514.65z"/>
			</g>
		</g>
		<g id="XMLID_425_">
			<g>
				<path class="st19" d="M714.25,514.39c0.19-0.87,1.25-0.68,2.27-0.72c1.03-0.04,3.23-0.01,3.42,0.69
					c0.11,0.42-2.06,0.65-2.88,0.66C716.91,515.03,714.1,515.09,714.25,514.39z"/>
			</g>
		</g>
		<g id="XMLID_423_">
			<g id="XMLID_424_">
				<g>
					<path class="st4" d="M722.56,525.2c0.03,0,0.05,0,0.08-0.01c0.1-0.02,2.34-0.6,2.29-2.08c-0.02-0.62-1.51-2.66-2.16-3.5
						c-0.12-0.16-0.34-0.19-0.5-0.07c-0.16,0.12-0.19,0.34-0.07,0.5c0.94,1.23,1.97,2.77,2.01,3.1c0.02,0.89-1.74,1.36-1.75,1.36
						c-0.19,0.05-0.31,0.24-0.26,0.43C722.25,525.09,722.4,525.2,722.56,525.2z"/>
				</g>
			</g>
		</g>
		<g id="XMLID_422_">
			<g>
				<path class="st6" d="M721.07,527.22c-1.44-0.05-2.95-0.67-3.76-0.19c-0.81,0.48,0.73,2.66,3.55,2.63
					c2.82-0.03,3.75-1.56,3.22-2.03C723.55,527.16,722.72,527.27,721.07,527.22z"/>
			</g>
		</g>
		<g id="XMLID_421_">
			<g>
				<path class="st1" d="M720.19,594.16c0,0,4.94,10.59,9.23,18.81c2.57,4.96,4.05,7.39,4.91,7.8c2.3,1.1,11.8-1.94,13.87-3.59
					c2.07-1.63,3.87-2.99,2.03-5.25c-1.83-2.26-10.42-0.76-11.38-1.04c-0.19-0.05-0.59-1-1.09-2.44
					c-1.86-5.37-5.14-17.75-5.14-17.75L720.19,594.16z"/>
			</g>
		</g>
		<g id="XMLID_420_">
			<g>
				<path class="st2" d="M729.42,612.97c2.57,4.96,4.05,7.39,4.91,7.8c2.3,1.1,11.8-1.94,13.87-3.59c2.07-1.63,3.87-2.99,2.03-5.25
					c-1.83-2.26-10.42-0.76-11.38-1.04c-0.19-0.05-0.59-1-1.09-2.44c-1.29,0.25-2.98,0.72-4.34,1.49
					C732.06,610.71,730.55,611.96,729.42,612.97z"/>
			</g>
		</g>
		<g id="XMLID_419_">
			<g>
				<path class="st21" d="M686.53,605.67c5.8,8.21,16.19,12.84,28.11,7.47c11.92-5.37,12.45-9.19,12.45-9.19s3.71-8.79,9.09-12.47
					c5.38-3.68,9.45-4.87,10.1-6.31c0.66-1.43,2.7-12.68-4.77-17.53c-7.48-4.87-20.32,3.76-20.32,3.76s-1.97,1.14-3.17,1.57
					c-0.43,0.16-0.76,0.23-0.86,0.1c-0.06-0.08,0.03-0.46,0.2-1.06c0.85-3.1,2.53-12.07,2.09-19.04
					c-0.77-12.22-5.14-14.92-5.14-14.92s-3.01,2.5-5.36,2.09c-6.31-1.1-6.79-4.59-6.79-4.59s-7.56,2.38-9.22,4.15
					c-2.34,2.5-4.8,12.41-6.33,20.7c-1.51,8.29-0.52,19.98-0.52,19.98S680.72,597.47,686.53,605.67z"/>
			</g>
		</g>
		<g id="XMLID_418_">
			<g>
				<path class="st1" d="M696.22,539.31c1.92-0.39,7.67-0.09,5.31,5.79c-2.36,5.88-16.84,12.21-18.81,14.29
					c-1.97,2.08-7.56,12.18-8.11,14.16c-0.55,1.98,0.33,8.4-0.36,10.41c-0.69,2.01-4.13,7.96-5.13,7.97c-1,0.01-2.99-2.4-3.54-3.53
					c-0.9-1.82-1.27-4.23,0.54-8.11c1.81-3.87,3.07-6.27,3.07-6.27s2.67-15.73,10.71-23.53S691.37,540.29,696.22,539.31z"/>
			</g>
		</g>
		<g class="st24">
			<g>
				<path class="st21" d="M700.5,587.16c0.17,0,0.34-0.08,0.45-0.23c0.04-0.05,3.65-4.87,6.81-7.45c3.16-2.58,8.48-5.24,8.53-5.27
					c0.28-0.14,0.4-0.48,0.26-0.76c-0.14-0.28-0.49-0.4-0.76-0.26c-0.22,0.11-5.49,2.74-8.75,5.4c-3.27,2.67-6.85,7.45-7,7.65
					c-0.19,0.25-0.14,0.61,0.12,0.8C700.26,587.12,700.38,587.16,700.5,587.16z"/>
			</g>
		</g>
		<g>
			<path class="st19" d="M727.23,511.54c0,0,2.96-10.83-13.56-11.82c-16.78-1.01-15.72,14.86-15.72,14.86
				c2.77-2.08,7.26,1.54,7.26,1.54c4.47-1.94,8.97-6.78,15.58-6.63C724.09,509.56,727.23,511.54,727.23,511.54z"/>
		</g>
		<g>
			<path class="st19" d="M727.59,511.35c-0.36,1.58-4.28,2.03-8.75,1c-4.47-1.03-7.79-3.15-7.43-4.73c0.36-1.58,4.28-2.03,8.75-1
				C724.63,507.65,727.95,509.77,727.59,511.35z"/>
		</g>
		<g>
			<path class="st19" d="M714.48,510.84c0.04,3.33-1.48,7.18-5.25,7.22c-2.77,0.03-4.97-1.95-5.01-5.29
				c-0.04-3.33,2.18-6.06,4.95-6.09C711.94,506.65,714.44,507.51,714.48,510.84z"/>
		</g>
		<g>
			<g>
				<path class="st19" d="M704.41,502.82c0.04,3.26-2.57,5.93-5.83,5.97c-3.26,0.04-5.93-2.57-5.97-5.83
					c-0.04-3.26,2.57-5.93,5.83-5.97C701.7,496.95,704.38,499.56,704.41,502.82z"/>
			</g>
		</g>
		<g>
			<g>
				<path class="st25" d="M700.36,503.36c1.14-1.12,1.97-1.96,2.52-1.41c0.38,0.39-0.45,1.4-1.59,2.52
					c-1.14,1.12-1.64,2.47-2.55,1.55C698.07,505.35,699.22,504.48,700.36,503.36z"/>
			</g>
		</g>
	</g>
	<g>
		<g>
			<g id="XMLID_475_">
				<g>
					<path class="st1" d="M823.31,599.55l1.52-0.02c2.62-0.03,4.72-2.18,4.69-4.8l-0.08-6.39c-0.03-2.62-2.18-4.72-4.8-4.69
						l-1.52,0.02c-2.62,0.03-4.72,2.18-4.69,4.8l0.08,6.39C818.53,597.48,820.69,599.58,823.31,599.55z"/>
				</g>
			</g>
			<g id="XMLID_474_">
				<g>
					<path class="st1" d="M801.54,599.87l1.52-0.02c2.62-0.03,4.72-2.18,4.69-4.8l-0.08-6.39c-0.03-2.62-2.18-4.72-4.8-4.69
						l-1.52,0.02c-2.62,0.03-4.72,2.18-4.69,4.8l0.08,6.39C796.77,597.8,798.92,599.9,801.54,599.87z"/>
				</g>
			</g>
			<g id="XMLID_473_">
				<g>
					<path class="st23" d="M789.02,589l1.36-0.02c2.05-0.02,3.7-1.71,3.68-3.76l-0.11-9.7c-0.03-2.34-1.95-4.21-4.28-4.18
						l-1.36,0.02c-2.34,0.03-4.21,1.95-4.18,4.28l0.1,8.67C784.24,586.93,786.39,589.03,789.02,589z"/>
				</g>
			</g>
			<g id="XMLID_472_">
				<g>
					<path class="st1" d="M796.81,595.29c0,0-8.88-13.84-9.1-16.78c-0.22-2.94,0.04-5.77,4.18-4.45
						c4.15,1.33,11.24,18.65,11.24,18.65L796.81,595.29z"/>
				</g>
			</g>
			<g id="XMLID_471_">
				<g>
					<path class="st1" d="M818.96,595.76c0,0-6.45-10.69-6.67-13.62c-0.22-2.94,0.57-5.98,4.72-4.65c4.15,1.33,8.27,15.7,8.27,15.7
						L818.96,595.76z"/>
				</g>
			</g>
			<g id="XMLID_470_">
				<g>
					<path class="st26" d="M832.33,564.4c0,0,0.97,24.1,0.29,24.93c-0.68,0.83-6.73,1.73-8.38,1.75c-1.65,0.02-6.9-0.61-7.31-1.02
						c-0.42-0.41-2.33-10.31-3.08-10.3c-0.76,0.01-3.12,9.68-4.08,10.52c-0.95,0.84-8.66,1.48-9.62,1.63
						c-0.96,0.15-4.96-0.35-6.63-1.44c-1.67-1.08-0.3-25.62-0.3-25.62L832.33,564.4z"/>
				</g>
			</g>
			<g id="XMLID_469_">
				<g>
					<path class="st9" d="M801.31,488.22c0,0,0.03,7.66,2.72,10.52c2.44,2.59,3.82,0.59,3.82,0.59l0.23-13.96L801.31,488.22z"/>
				</g>
			</g>
			<g id="XMLID_468_">
				<g>
					
						<rect x="808.96" y="500" transform="matrix(0.9995 -0.0315 0.0315 0.9995 -15.5168 25.8932)" class="st1" width="9.94" height="10.71"/>
				</g>
			</g>
			<g id="XMLID_467_">
				<g>
					<path class="st4" d="M808.77,499.39l0.19,6.17c2.29,0.81,4.74,1.49,5.98,1.31c1.21-0.17,2.69-0.73,3.97-1.27l-0.21-6.52
						L808.77,499.39z"/>
				</g>
			</g>
			<g id="XMLID_466_">
				<g>
					<path class="st1" d="M805.16,488.56c0.12-5.76,4.72-10.48,10.55-10.67c6.02-0.19,11.06,4.54,11.25,10.56l-0.57,6.36
						c-0.28,6.61-6.28,10.63-8.04,10.68c-1.96,0.06-8.37-0.5-11.48-6.66c0,0-3.56-2.79-3.65-5.4
						C803.15,490.94,803.57,488.78,805.16,488.56z"/>
				</g>
			</g>
			<g id="XMLID_465_">
				<g>
					<path class="st7" d="M822.26,491.3l0.25-0.01c0.43-0.01,0.76-0.37,0.75-0.8l-0.03-0.9c-0.01-0.43-0.37-0.76-0.8-0.75
						l-0.25,0.01c-0.43,0.01-0.76,0.37-0.75,0.8l0.03,0.9C821.47,490.98,821.83,491.31,822.26,491.3z"/>
				</g>
			</g>
			<g id="XMLID_464_">
				<g>
					<path class="st7" d="M812.15,491.62l0.25-0.01c0.43-0.01,0.76-0.37,0.75-0.8l-0.03-0.9c-0.01-0.43-0.37-0.76-0.8-0.75
						l-0.25,0.01c-0.43,0.01-0.76,0.37-0.75,0.8l0.03,0.9C811.36,491.3,811.72,491.63,812.15,491.62z"/>
				</g>
			</g>
			<g id="XMLID_463_">
				<g>
					<path class="st9" d="M825.51,485.78c-0.11-0.75-1.03-0.66-1.91-0.75c-0.88-0.09-2.77-0.2-2.98,0.39
						c-0.12,0.35,1.73,0.68,2.43,0.74C823.18,486.17,825.6,486.39,825.51,485.78z"/>
				</g>
			</g>
			<g id="XMLID_462_">
				<g>
					<path class="st9" d="M809.75,486.06c0.06-0.76,0.98-0.72,1.86-0.87s2.75-0.37,3,0.2c0.14,0.34-1.68,0.79-2.37,0.89
						C812.1,486.3,809.7,486.67,809.75,486.06z"/>
				</g>
			</g>
			<g id="XMLID_460_">
				<g id="XMLID_461_">
					<g>
						<path class="st4" d="M818.67,495.6c0.03,0,0.05,0,0.08-0.01c0.09-0.02,2.23-0.62,2.16-2.04c-0.03-0.59-1.5-2.52-2.13-3.32
							c-0.12-0.15-0.33-0.17-0.48-0.06c-0.15,0.12-0.17,0.33-0.06,0.48c0.92,1.17,1.94,2.62,1.99,2.93
							c0.04,0.85-1.64,1.34-1.66,1.34c-0.18,0.05-0.29,0.24-0.24,0.42C818.38,495.5,818.52,495.6,818.67,495.6z"/>
					</g>
				</g>
			</g>
			<g id="XMLID_459_">
				<g>
					<path class="st6" d="M813,497.66c-0.94,0.58,0.92,3.1,4.22,2.99c3.31-0.1,4.35-1.92,3.72-2.45
						C820.31,497.68,813.94,497.08,813,497.66z"/>
				</g>
			</g>
			<g id="XMLID_458_">
				<g>
					<path class="st9" d="M825.44,483.25c-1.36-1.62-5.88-2.5-8.08-2.46c-2.39,0.04-6.27,1.46-9,4.29
						c-1.11,1.15-1.66,5.89-1.66,5.89s-2.25-2.89-3.41-1.06c-0.59,0.94-1.98-1.69-1.98-1.69c-0.21-2.69-0.85-9-0.15-10.48
						c1.13-2.37,6.71-7.09,16.06-6.1c5.18,0.55,6.94,4.39,7.75,4.73c0.81,0.34,3.89,2.94,3.52,6.51s-1.58,5.01-1.58,5.01
						S826.23,484.18,825.44,483.25z"/>
				</g>
			</g>
			<g id="XMLID_457_">
				<g>
					<g>
						<g>
							<path class="st1" d="M827.62,510.93c0.71-5.72,11.4-14.62,12.65-16.91c1.25-2.29,3.41-12.4,3.43-14.28
								c0.02-1.33-0.12-4.55-0.73-6.94l0,0c0,0-2.4-5.92-1.54-6.22c0.55-0.19,1.2,0.73,1.6,1.42c0.58-2.48,1.6-5.61,2.23-5.78
								c0.88-0.24,3.18,1.42,3.93,2.28c1.21,1.4,2.1,3.43,1.41,7.26c-0.69,3.83-1.25,6.23-1.25,6.23s1.3,14.45-3.96,23.18
								c-5.26,8.73-7.72,11.63-11.75,13.62C832.04,515.58,826.92,516.65,827.62,510.93z"/>
						</g>
					</g>
				</g>
			</g>
			<g id="XMLID_456_">
				<g>
					<g>
						<g>
							<path class="st1" d="M802.16,509.07c-1.01-5.67-12.16-13.99-13.54-16.21c-1.37-2.22-4.06-12.2-4.19-14.07
								c-0.09-1.33-0.12-4.55,0.36-6.97l0,0c0,0,2.08-6.04,1.2-6.3c-0.56-0.16-1.16,0.79-1.53,1.5c-0.71-2.44-1.9-5.51-2.53-5.65
								c-0.89-0.19-3.1,1.59-3.8,2.49c-1.14,1.46-1.91,3.54-1.02,7.32c0.9,3.78,1.58,6.16,1.58,6.16s-0.53,14.5,5.19,22.93
								c5.72,8.43,8.33,11.2,12.46,12.97C798.01,513.94,803.18,514.74,802.16,509.07z"/>
						</g>
					</g>
				</g>
			</g>
			<g>
				<path class="st9" d="M827.81,480.79c0.02,1.68-3.38,3.08-7.59,3.13c-4.21,0.05-7.64-1.27-7.66-2.95
					c-0.02-1.68,3.38-3.08,7.59-3.13C824.36,477.79,827.79,479.11,827.81,480.79z"/>
			</g>
			<g>
				<path class="st25" d="M820.13,507.85c2.18-0.39,4.65-1.55,8.18-3.38c1.26-0.65,9.25-7.31,9.25-7.31l7.82,9.38l-13.22,16.55
					l4.24,41.92c0,0-9.91,3.9-23.22,4.53c-10.89,0.52-22.71-3.41-22.71-3.41l5.02-42.8l-11.63-19.01l8.27-8.13
					c0,0,9.28,9.63,13.42,10.82C806.62,507.32,811.8,509.32,820.13,507.85z"/>
			</g>
		</g>
		<g>
			<g>
				<path class="st6" d="M813.91,508.3c0,0-3.75,6.42-4.46,6.36c-0.71-0.06-4.3-7.18-3.99-7.93s2.66-0.32,3.16-0.04
					C809.09,506.97,813.91,508.3,813.91,508.3z"/>
			</g>
		</g>
		<g>
			<g>
				<path class="st6" d="M813.91,508.3c0,0,3.9,6.33,4.61,6.25c0.71-0.08,4.13-7.28,3.81-8.02c-0.33-0.74-2.67-0.25-3.16,0.04
					C818.68,506.86,813.91,508.3,813.91,508.3z"/>
			</g>
		</g>
		<g>
			
				<rect x="813.32" y="508.34" transform="matrix(0.9999 -0.0118 0.0118 0.9999 -5.9907 9.6002)" class="st6" width="1.27" height="12.5"/>
		</g>
	</g>
	<g>
		<g>
			<path class="st25" d="M873.26,460.22c0.16,1.4-1.65,2.75-3.28,2.93c-1.63,0.18-3.07-0.8-3.23-2.2c-0.16-1.4,1.03-2.68,2.66-2.86
				C871.04,457.91,873.1,458.83,873.26,460.22z"/>
		</g>
		<g>
			<path class="st25" d="M872.65,461.06c-0.43-1.89-0.42-3.98-0.78-5.88c-0.37-1.9-0.76-6.98-0.37-7.23
				c0.38-0.21,0.84-0.35,1.29-0.36c0.45-0.02,0.88,0.08,1.24,0.24c0.12,0.07,0.29,0.12,0.5,0.18c0.42,0.11,0.94,0.16,1.47,0.21
				c0.53,0.05,1.09,0.08,1.68,0.15l0.07,0.22c-0.46,0.4-0.97,0.7-1.51,0.95c-0.55,0.24-1.13,0.43-1.8,0.48
				c-0.34,0.04-0.71,0-1.11-0.08c-0.16-0.01-0.28,0-0.38,0.02c-0.1,0.03-0.18,0.05-0.28,0.11c-0.09,0.02,0.04,3.22,0.11,5.15
				c0.07,1.93,0.47,3.17,0.47,5.11L872.65,461.06z"/>
		</g>
	</g>
	<g>
		<g>
			<path class="st25" d="M901.28,475.63c0.19,1.4-1.59,2.79-3.21,3.01c-1.62,0.22-3.09-0.73-3.28-2.12
				c-0.19-1.4,0.97-2.71,2.59-2.93C899,473.37,901.08,474.23,901.28,475.63z"/>
		</g>
		<g>
			<path class="st25" d="M900.69,476.48c-0.48-1.88-0.51-3.97-0.92-5.86c-0.41-1.89-0.93-6.96-0.54-7.22
				c0.38-0.22,0.83-0.38,1.28-0.39c0.45-0.03,0.88,0.06,1.25,0.21c0.12,0.06,0.29,0.12,0.51,0.17c0.42,0.1,0.94,0.13,1.47,0.17
				c0.53,0.03,1.09,0.06,1.68,0.11l0.08,0.22c-0.45,0.41-0.95,0.73-1.49,0.98c-0.54,0.25-1.12,0.46-1.79,0.53
				c-0.33,0.05-0.71,0.02-1.12-0.06c-0.16-0.01-0.28,0.01-0.38,0.03c-0.09,0.03-0.18,0.05-0.27,0.11c-0.08,0.02,0.12,3.22,0.23,5.15
				c0.12,1.93,0.55,3.15,0.6,5.1L900.69,476.48z"/>
		</g>
	</g>
	<g>
		<g>
			<path class="st25" d="M895.17,441.06c0.14,1.01-1.15,2.02-2.32,2.18c-1.17,0.16-2.24-0.53-2.38-1.54
				c-0.14-1.01,0.7-1.96,1.88-2.12C893.52,439.42,895.03,440.05,895.17,441.06z"/>
		</g>
		<g>
			<path class="st25" d="M894.74,441.67c-0.34-1.36-0.37-2.88-0.67-4.25c-0.3-1.37-0.68-5.04-0.39-5.23
				c0.27-0.16,0.6-0.27,0.93-0.28c0.33-0.02,0.64,0.05,0.9,0.15c0.09,0.05,0.21,0.09,0.37,0.12c0.31,0.07,0.68,0.1,1.07,0.12
				c0.39,0.02,0.79,0.04,1.22,0.08l0.06,0.16c-0.33,0.3-0.69,0.53-1.08,0.71c-0.39,0.18-0.81,0.33-1.3,0.38
				c-0.24,0.04-0.51,0.01-0.81-0.04c-0.11,0-0.2,0.01-0.27,0.02c-0.07,0.02-0.13,0.04-0.2,0.08c-0.06,0.02,0.09,2.33,0.17,3.73
				c0.09,1.4,0.4,2.28,0.43,3.69L894.74,441.67z"/>
		</g>
	</g>
	<g>
		<g>
			<path class="st25" d="M876.19,418.29c0.1,0.73-0.83,1.46-1.68,1.58s-1.62-0.38-1.72-1.11c-0.1-0.73,0.51-1.42,1.36-1.54
				C875,417.1,876.09,417.55,876.19,418.29z"/>
		</g>
		<g>
			<path class="st25" d="M875.88,418.73c-0.25-0.99-0.27-2.08-0.48-3.08c-0.22-0.99-0.49-3.65-0.29-3.78c0.2-0.11,0.43-0.2,0.67-0.2
				c0.24-0.02,0.46,0.03,0.66,0.11c0.06,0.03,0.15,0.06,0.27,0.09c0.22,0.05,0.49,0.07,0.77,0.09c0.28,0.02,0.57,0.03,0.88,0.06
				l0.04,0.11c-0.24,0.22-0.5,0.38-0.78,0.52c-0.29,0.13-0.59,0.24-0.94,0.28c-0.18,0.03-0.37,0.01-0.59-0.03
				c-0.08,0-0.15,0-0.2,0.02c-0.05,0.02-0.09,0.03-0.14,0.06c-0.04,0.01,0.06,1.69,0.12,2.7c0.06,1.01,0.29,1.65,0.31,2.67
				L875.88,418.73z"/>
		</g>
	</g>
</g>
</svg>
